<svg width="1920" height="2200" viewBox="0 0 1920 2200" fill="none" xmlns="http://www.w3.org/2000/svg">
<rect width="1920" height="2200" fill="#EDEEF8"/>
<path d="M356.444 379.761L453.734 489.139L564.627 584.698L490.667 711.026L434.053 846.022L291.053 814.719L145.17 802.592L130.752 656.917L97.2051 514.427L231.294 455.698L356.444 379.761Z" fill="white" fill-opacity="0.19"/>
<path d="M773.443 1382.3L753.013 1527.14L717.47 1669.02L573.412 1694.35L427.49 1704.39L358.887 1575.2L304.245 1439.53L405.904 1334.36L518.056 1240.47L649.488 1304.65L773.443 1382.3Z" fill="white" fill-opacity="0.19"/>
<path d="M1438.5 1382L1550.97 1475.7L1674.84 1553.71L1620.48 1689.63L1584.56 1831.54L1438.5 1821.85L1292.44 1831.54L1256.52 1689.63L1202.16 1553.71L1326.03 1475.7L1438.5 1382Z" fill="white" fill-opacity="0.19"/>
<path d="M1347.5 60L1454.13 161.74L1583.84 231.709L1520.03 364.557L1493.56 509.541L1347.5 489.905L1201.44 509.541L1174.97 364.557L1111.16 231.709L1240.87 161.74L1347.5 60Z" fill="white" fill-opacity="0.19"/>
<path d="M1236.93 700.929L1372.42 756.354L1514.05 793.385L1503.2 939.369L1511.75 1085.51L1369.56 1120.3L1233.22 1173.59L1156.18 1049.11L1063.37 935.908L1157.95 824.179L1236.93 700.929Z" fill="white" fill-opacity="0.19"/>
</svg>
