<svg xmlns="http://www.w3.org/2000/svg" viewBox="0 0 462.89 239"><defs><style>.cls-1{fill:#f15a24;}.cls-2,.cls-5{fill:none;}.cls-3{fill:#f7931e;}.cls-4{fill:#fff;}.cls-5{stroke:#f15a24;stroke-miterlimit:10;stroke-width:4px;}</style></defs><g id="Слой_2" data-name="Слой 2"><circle class="cls-1" cx="10" cy="66" r="10"/><circle class="cls-1" cx="82" cy="10" r="10"/><circle class="cls-1" cx="44" cy="23" r="10"/><circle class="cls-1" cx="120" cy="23" r="10"/><circle class="cls-1" cx="158" cy="66" r="10"/><line class="cls-2" x1="80" y1="26" x2="84" y2="26"/><line class="cls-3" x1="80" y1="59" x2="84" y2="59"/><rect class="cls-1" x="80" y="25" width="4" height="34"/><polygon class="cls-1" points="67 63 63 63 63 51 42 51 42 38 46 38 46 47 67 47 67 63"/><polygon class="cls-1" points="97 63 101 63 101 51 122 51 122 38 118 38 118 47 97 47 97 63"/><rect class="cls-1" x="50" y="76" width="4" height="4"/><rect class="cls-1" x="50" y="68" width="4" height="4"/><rect class="cls-1" x="46" y="64" width="4" height="4"/><rect class="cls-1" x="37" y="64" width="4" height="4"/><rect class="cls-1" x="29" y="64" width="4" height="4"/><rect class="cls-1" x="131" y="210" width="4" height="4" transform="translate(249 290) rotate(-180)"/><rect class="cls-1" x="131" y="202" width="4" height="4" transform="translate(249 274) rotate(-180)"/><rect class="cls-1" x="135" y="198" width="4" height="4" transform="translate(257 266) rotate(-180)"/><rect class="cls-1" x="144" y="198" width="4" height="4" transform="translate(275 266) rotate(-180)"/><rect class="cls-1" x="152" y="198" width="4" height="4" transform="translate(291 266) rotate(-180)"/><rect class="cls-1" x="57" y="221" width="54" height="18"/><rect class="cls-1" x="51" y="191" width="66" height="25"/><rect class="cls-4" x="105" y="206" width="4" height="10"/><circle class="cls-4" cx="107" cy="201" r="6"/><circle class="cls-1" cx="107" cy="201" r="3"/><path class="cls-1" d="M122,300c.84-.47,3-3.37,4-5a25,25,0,0,0,3-8,41.15,41.15,0,0,0,1-7,87.45,87.45,0,0,0,0-12V230c0-1-.06-2,0-3a13.49,13.49,0,0,0,0-4,5.16,5.16,0,0,0-.5-1.5,4.77,4.77,0,0,0-2-2,5.31,5.31,0,0,0-2.5-.5c-1.14,0-2.15-.07-2.5.5-.17.27,0,.42,0,2v23c0,1,0,2,0,3,.09,2.25.33,2.59,0,3-.9,1.12-4.31.55-5-1-.18-.39-.07-.61,0-2,0-1,0-2,0-3v-29c0-.45,0-1.15,0-2a4.94,4.94,0,0,0,0-1,4.47,4.47,0,0,0-1-2,7.7,7.7,0,0,0-1.53-1.68,4.85,4.85,0,0,0-3.47-1.32,2.71,2.71,0,0,0-2,1c-.11.18-.25.46-.2,2.07,0,1.33.15,1.7.2,2.93,0,.46,0,.52,0,2v23c.14,3.8.73,5,0,6-.44.6-1.43,1.22-4,1a1.88,1.88,0,0,1-1-1,1.69,1.69,0,0,1,0-1v-34c0-1.33,0-2.67,0-4a13.64,13.64,0,0,0,0-2c-.57-2.78-3.86-3.95-4-4s-2.4-.8-3,0c-.24.32-.07.68,0,2v36c0,2.43,0,2.45,0,3-.1,2.94-.16,4.42-1,5a2.87,2.87,0,0,1-3,0l-.08-.06c-1-.8-.93-2.49-.92-4.94,0-.62,0-1.66,0-3v-30c.12-2.05.4-2.69,0-3s-1.66.22-3,1c-2.21,1.29-4.67,2.71-5,5v39c.07,1.21.22,1.5,0,2a2.28,2.28,0,0,1-1,1c-1.23.73-3.28.93-4,0-.35-.45-.09-.78,0-3v-6c-.18-2.91-3-5.81-6-7-2.13-.86-5.25-1.2-6,0-.24.37-.1.68,0,2v46a19.76,19.76,0,0,0,2,7,19.16,19.16,0,0,0,2.81,5c1.66,2,2.7,2.29,3.19,4,.09.31,0,.16,0,4v14c-.06,1.32-.28,1.76,0,2s.61.08,1,0a14.32,14.32,0,0,1,3,0h39a12.14,12.14,0,0,1,2,0c.44.08.81.19,1,0s.07-.5,0-1v-16a9.55,9.55,0,0,0,0-2,1.49,1.49,0,0,1,0-1A1.18,1.18,0,0,1,122,300Z" transform="translate(-17 -134)"/><circle class="cls-4" cx="82" cy="146" r="23"/><circle class="cls-1" cx="82" cy="146" r="19"/><rect class="cls-4" x="76.37" y="134.5" width="3.42" height="24.26"/><rect class="cls-4" x="74.5" y="150.99" width="14.62" height="2.49"/><rect class="cls-4" x="74.5" y="146.94" width="9.02" height="2.49"/><rect class="cls-4" x="76.37" y="134.5" width="7.15" height="2.49"/><path class="cls-4" d="M100.52,283.43a8.76,8.76,0,0,0,2.18-.31,7.23,7.23,0,0,0,2.18-.93,6.65,6.65,0,0,0,2.17-2.49,8,8,0,0,0,.94-3.42,8.5,8.5,0,0,0-.31-2.8,6.4,6.4,0,0,0-5-4.67,9,9,0,0,0-2.18-.31V271a7.15,7.15,0,0,1,.93.31,5.4,5.4,0,0,1,1.25.62,3.9,3.9,0,0,1,.93.93,4.72,4.72,0,0,1,.62,1.56,5.13,5.13,0,0,1,.31,1.56,4.24,4.24,0,0,1-.31,1.55,5.73,5.73,0,0,1-.93,1.87,4.05,4.05,0,0,1-.93.93,3.66,3.66,0,0,1-1.87.62Z" transform="translate(-17 -134)"/></g><g id="Слой_3" data-name="Слой 3"><path class="cls-1" d="M163.06,307.32l5.71-4.24c1.37,2.55,3.28,3.71,5.18,3.71,3,0,4.62-1.53,4.62-6.49V276.21H187V301c0,7.15-3.71,13-11.92,13C169.37,314,165.64,311.83,163.06,307.32Z" transform="translate(-17 -134)"/><path class="cls-1" d="M203.82,294.62c0-12.14,6.86-19.1,16.88-19.1s16.87,7,16.87,19.1S230.72,314,220.7,314,203.82,306.76,203.82,294.62Zm25.14,0c0-7.45-3.19-11.84-8.26-11.84s-8.27,4.39-8.27,11.84,3.2,12.17,8.27,12.17S229,302.07,229,294.62Z" transform="translate(-17 -134)"/><path class="cls-1" d="M254.6,276.21h12.72c7.71,0,13.7,2.12,13.7,9.21,0,3.33-1.87,6.88-4.9,8v.23a8.47,8.47,0,0,1,6.73,8.75c0,7.55-6.39,10.94-14.47,10.94H254.6Zm12.33,14.88c4.07,0,5.88-1.73,5.88-4.43,0-2.86-1.91-4-5.82-4h-4v8.4Zm.76,15.79c4.58,0,6.95-1.63,6.95-5s-2.33-4.58-6.95-4.58H263v9.59Z" transform="translate(-17 -134)"/><path class="cls-1" d="M295,276.21h8.61l2.58,17.35c.49,3.92,1,7.83,1.51,11.75H308c.72-3.92,1.47-7.88,2.21-11.75l4-17.35h7.12l4,17.35c.74,3.78,1.49,7.79,2.23,11.75h.23c.49-4,1-7.93,1.5-11.75l2.57-17.35h8l-6.59,37.15H322.7l-3.64-16.87c-.59-2.87-1.08-5.85-1.49-8.63h-.23c-.44,2.78-.91,5.76-1.5,8.63l-3.52,16.87H301.94Z" transform="translate(-17 -134)"/><path class="cls-1" d="M353.16,294.62c0-12.14,6.86-19.1,16.88-19.1s16.87,7,16.87,19.1S380.06,314,370,314,353.16,306.76,353.16,294.62Zm25.14,0c0-7.45-3.2-11.84-8.26-11.84s-8.27,4.39-8.27,11.84,3.2,12.17,8.27,12.17S378.3,302.07,378.3,294.62Z" transform="translate(-17 -134)"/><path class="cls-1" d="M403.94,276.21h13.38c7.88,0,14.34,2.73,14.34,11.57,0,8.54-6.46,12.21-14.34,12.21h-5v13.37h-8.4Zm12.69,17.11c4.42,0,6.8-1.89,6.8-5.54s-2.38-4.9-6.8-4.9h-4.29v10.44Zm-.85,4.46,5.81-5.38,11.86,21h-9.4Z" transform="translate(-17 -134)"/><path class="cls-1" d="M448.91,276.21h8.4v15.18h.21l11.07-15.18h9.24L466.58,291l13.31,22.32h-9.21l-9-15.7-4.34,5.74v10h-8.4Z" transform="translate(-17 -134)"/><line class="cls-5" x1="130" y1="121" x2="130" y2="209"/></g></svg>